<svg xmlns="http://www.w3.org/2000/svg" width="774.266" height="774.266" viewBox="0 0 774.266 774.266">
  <path d="M640.35 91.169H536.971V23.991C536.971 10.469 526.064 0 512.543 0c-1.312 0-2.187.438-2.614.875-.438-.437-1.313-.875-1.75-.875H261.722c-13.521 0-23.99 10.469-23.99 23.991V91.17H133.916c-29.667 0-52.783 23.116-52.783 52.783v86.368h45.803v491.6c0 29.668 22.679 52.346 52.346 52.346h415.703c29.667 0 52.782-22.678 52.782-52.346v-491.6h45.366v-86.368c0-29.667-23.125-52.784-52.783-52.784zM285.713 47.981h202.84v43.188h-202.84V47.981zm313.636 673.941c0 3.061-1.312 4.363-4.364 4.363H179.282c-3.052 0-4.364-1.303-4.364-4.363V230.32h424.431v491.602zm45.366-539.583H129.551v-38.387c0-3.053 1.312-4.802 4.364-4.802H640.35c3.053 0 4.365 1.749 4.365 4.802v38.387z" fill="#373F51"/>
  <path d="M475.031 286.593h48.418v396.942h-48.418zM363.361 286.593h48.418v396.942h-48.418zM251.69 286.593h48.418v396.942H251.69z" fill="#373F51"/>
</svg>
