<svg xmlns="http://www.w3.org/2000/svg" viewBox="0 0 512 512" id="root"><path d="M363.485 374.099c-44.707-24.704-95.544-37.754-147.04-37.754-30.32 0-60.742 4.581-90.409 13.611-6.146 2.009-10.858 18.628-8.578 26.115 1.687 5.479 6.716 9.169 12.511 9.169 1.326 0 2.651-.2 3.942-.593 26.465-8.251 54.242-12.437 82.536-12.437 46.832 0 93.278 11.925 134.32 34.482 2.05 1.11 4.099 1.633 6.431 1.633 4.705 0 9.164-2.646 11.361-6.738 1.741-3.189 2.172-9.322 1.088-15.284-1.084-5.966-3.503-10.755-6.162-12.204zm30.231-88.771c-54.267-28.272-115.554-43.206-177.271-43.206a387.318 387.318 0 0 0-101.574 13.547c-8.106 2.204-13.587 17.947-11.187 26.953 1.873 6.926 8.2 11.774 15.38 11.773 1.418 0 2.842-.19 4.232-.566 29.845-8.279 61.195-12.481 93.149-12.481 57.446 0 112.123 13.305 162.515 39.548 2.443 1.22 4.895 1.83 7.437 1.83 3.586 0 9.246-6.367 14.089-15.845 2.033-3.901 2.426-8.271 1.123-12.335-1.285-4.014-4.089-7.287-7.893-9.218zm32.315-94.951c-65.457-32.654-135.965-49.207-209.586-49.207-38.029 0-76.276 4.658-113.681 13.846-9.617 2.422-16.258 14.752-13.641 25.367 2.087 8.383 9.607 14.245 18.284 14.245 1.541 0 3.09-.19 4.606-.564 34.425-8.456 69.56-12.745 104.431-12.745 67.858 0 132.752 15.254 192.881 45.338a19.67 19.67 0 0 0 8.266 1.862c7.301 0 13.925-6.606 16.99-12.741 2.249-4.556 2.605-9.713.994-14.506-1.607-4.782-4.998-8.653-9.544-10.895z" fill="#fff"/><path d="M255.901 0C114.797 0 0 114.807 0 255.921 0 397.124 114.797 512 255.901 512 397.114 512 512 397.124 512 255.921 512 114.807 397.114 0 255.901 0zm112.657 401.588c-2.197 4.093-6.656 6.738-11.361 6.738-2.332 0-4.381-.524-6.431-1.633-41.041-22.558-87.487-34.482-134.32-34.482-28.294 0-56.072 4.187-82.536 12.437a13.576 13.576 0 0 1-3.942.593c-5.795 0-10.824-3.69-12.511-9.169-2.278-7.487 2.432-24.104 8.578-26.115 29.669-9.031 60.089-13.611 90.409-13.611 51.495 0 102.333 13.05 147.04 37.754 2.659 1.449 5.076 6.24 6.161 12.204 1.085 5.962.654 12.092-1.087 15.284zm31.927-94.709c-4.843 9.478-10.504 15.845-14.089 15.845-2.542 0-4.994-.609-7.437-1.83-50.393-26.243-105.069-39.548-162.516-39.548-31.954 0-63.303 4.202-93.149 12.481a16.198 16.198 0 0 1-4.232.566c-7.18.002-13.507-4.846-15.38-11.773-2.401-9.004 3.08-24.747 11.187-26.953a387.318 387.318 0 0 1 101.574-13.547c61.717 0 123.003 14.934 177.271 43.206 3.804 1.93 6.607 5.206 7.892 9.216 1.306 4.066.912 8.434-1.121 12.337zm34.099-91.099c-3.065 6.136-9.689 12.741-16.99 12.741-2.815 0-5.706-.66-8.266-1.862-60.129-30.084-125.024-45.338-192.881-45.338-34.871 0-70.006 4.289-104.431 12.745a19.248 19.248 0 0 1-4.606.564c-8.677 0-16.196-5.862-18.284-14.245-2.617-10.614 4.024-22.944 13.641-25.367 37.403-9.187 75.65-13.846 113.681-13.846 73.621 0 144.127 16.552 209.586 49.207 4.546 2.243 7.935 6.114 9.547 10.898 1.608 4.79 1.252 9.947-.997 14.503z"/></svg>
